<svg xmlns="http://www.w3.org/2000/svg" xmlns:xlink="http://www.w3.org/1999/xlink" version="1.2" width="141.42mm" height="100mm" viewBox="0 0 141.42 100" stroke="none" fill="#000000" stroke-width="0.3" font-size="3.88">
<defs>
  <marker id="arrow" markerWidth="15" markerHeight="7" refX="5" refY="3.5" orient="auto" markerUnits="strokeWidth">
    <path d="M0,0 L15,3.5 L0,7 z" stroke="context-stroke" fill="context-stroke"></path>
  </marker>
</defs>
<g stroke-width="1.06" fill="#000000" fill-opacity="0.000" stroke="#D3D3D3" id="img-d90528c6-1">
  <g transform="translate(70.71,30.25)">
    <path fill="none" d="M0,18.24 L0,-18.24 " class="primitive"></path>
  </g>
  <g transform="translate(47.08,38.5)">
    <path fill="none" d="M19.6,11.33 L-19.6,-11.33 " class="primitive"></path>
  </g>
  <g transform="translate(41.25,57.05)">
    <path fill="none" d="M24.39,-4.04 L-24.39,4.04 " class="primitive"></path>
  </g>
  <g transform="translate(57.6,71.92)">
    <path fill="none" d="M10.9,-16.41 L-10.9,16.41 " class="primitive"></path>
  </g>
  <g transform="translate(83.82,71.92)">
    <path fill="none" d="M-10.9,-16.41 L10.9,16.41 " class="primitive"></path>
  </g>
  <g transform="translate(100.17,57.05)">
    <path fill="none" d="M-24.39,-4.04 L24.39,4.04 " class="primitive"></path>
  </g>
  <g transform="translate(94.34,38.5)">
    <path fill="none" d="M-19.6,11.33 L19.6,-11.33 " class="primitive"></path>
  </g>
</g>
<g stroke-width="1.06" stroke="#D3D3D3" id="img-d90528c6-2">
</g>
<g font-size="4" stroke="#000000" stroke-opacity="0.000" fill="#000000" id="img-d90528c6-3">
</g>
<g stroke-width="0" stroke="#000000" stroke-opacity="0.000" id="img-d90528c6-4">
  <g transform="translate(70.71,52.17)" fill="#1E90FF">
    <circle cx="0" cy="0" r="5" class="primitive"></circle>
  </g>
  <g transform="translate(70.71,8.33)" fill="#FF6347">
    <circle cx="0" cy="0" r="5" class="primitive"></circle>
  </g>
  <g transform="translate(23.46,24.84)" fill="#FFC125">
    <circle cx="0" cy="0" r="5" class="primitive"></circle>
  </g>
  <g transform="translate(11.79,61.93)" fill="#FFC125">
    <circle cx="0" cy="0" r="5" class="primitive"></circle>
  </g>
  <g transform="translate(44.49,91.67)" fill="#FF6347">
    <circle cx="0" cy="0" r="5" class="primitive"></circle>
  </g>
  <g transform="translate(96.94,91.67)" fill="#FFC125">
    <circle cx="0" cy="0" r="5" class="primitive"></circle>
  </g>
  <g transform="translate(129.64,61.93)" fill="#FF6347">
    <circle cx="0" cy="0" r="5" class="primitive"></circle>
  </g>
  <g transform="translate(117.97,24.84)" fill="#FF6347">
    <circle cx="0" cy="0" r="5" class="primitive"></circle>
  </g>
</g>
<g font-size="4" stroke="#000000" stroke-opacity="0.000" fill="#000000" id="img-d90528c6-5">
  <g transform="translate(70.71,52.17)">
    <g class="primitive">
      <text text-anchor="middle" dy="0.35em"> </text>
    </g>
  </g>
  <g transform="translate(70.71,8.33)">
    <g class="primitive">
      <text text-anchor="middle" dy="0.35em">X</text>
    </g>
  </g>
  <g transform="translate(23.46,24.84)">
    <g class="primitive">
      <text text-anchor="middle" dy="0.35em">I</text>
    </g>
  </g>
  <g transform="translate(11.79,61.93)">
    <g class="primitive">
      <text text-anchor="middle" dy="0.35em">I</text>
    </g>
  </g>
  <g transform="translate(44.49,91.67)">
    <g class="primitive">
      <text text-anchor="middle" dy="0.35em">X</text>
    </g>
  </g>
  <g transform="translate(96.94,91.67)">
    <g class="primitive">
      <text text-anchor="middle" dy="0.35em">I</text>
    </g>
  </g>
  <g transform="translate(129.64,61.93)">
    <g class="primitive">
      <text text-anchor="middle" dy="0.35em">X</text>
    </g>
  </g>
  <g transform="translate(117.97,24.84)">
    <g class="primitive">
      <text text-anchor="middle" dy="0.35em">X</text>
    </g>
  </g>
</g>
</svg>